<svg width="512" height="512" viewBox="0 0 512 512" xmlns="http://www.w3.org/2000/svg">
  <!-- Background circle with gradient -->
  <defs>
    <linearGradient id="backgroundGradient" x1="0%" y1="0%" x2="100%" y2="100%">
      <stop offset="0%" style="stop-color:#6366f1;stop-opacity:1" />
      <stop offset="100%" style="stop-color:#8b5cf6;stop-opacity:1" />
    </linearGradient>
    <linearGradient id="checkGradient" x1="0%" y1="0%" x2="100%" y2="100%">
      <stop offset="0%" style="stop-color:#10b981;stop-opacity:1" />
      <stop offset="100%" style="stop-color:#059669;stop-opacity:1" />
    </linearGradient>
  </defs>
  
  <!-- Main background -->
  <circle cx="256" cy="256" r="240" fill="url(#backgroundGradient)" />
  
  <!-- Clipboard background -->
  <rect x="140" y="120" width="232" height="280" rx="16" fill="white" opacity="0.95"/>
  
  <!-- Clipboard clip -->
  <rect x="200" y="100" width="112" height="40" rx="8" fill="#e5e7eb"/>
  <rect x="210" y="110" width="92" height="20" rx="4" fill="white"/>
  
  <!-- Todo items -->
  <!-- Item 1 - Completed -->
  <rect x="170" y="180" width="20" height="20" rx="4" fill="url(#checkGradient)"/>
  <path d="M175 188 L181 194 L190 182" stroke="white" stroke-width="3" fill="none" stroke-linecap="round" stroke-linejoin="round"/>
  <rect x="205" y="182" width="140" height="3" rx="1.5" fill="#d1d5db"/>
  <rect x="205" y="190" width="100" height="3" rx="1.5" fill="#d1d5db"/>
  
  <!-- Item 2 - Active -->
  <rect x="170" y="230" width="20" height="20" rx="4" fill="none" stroke="#6b7280" stroke-width="2"/>
  <rect x="205" y="232" width="160" height="4" rx="2" fill="#374151"/>
  <rect x="205" y="242" width="120" height="4" rx="2" fill="#374151"/>
  
  <!-- Item 3 - Active -->
  <rect x="170" y="280" width="20" height="20" rx="4" fill="none" stroke="#6b7280" stroke-width="2"/>
  <rect x="205" y="282" width="180" height="4" rx="2" fill="#374151"/>
  <rect x="205" y="292" width="90" height="4" rx="2" fill="#374151"/>
  
  <!-- Plus button for adding items -->
  <circle cx="320" cy="350" r="24" fill="url(#backgroundGradient)" />
  <path d="M308 350 L332 350 M320 338 L320 362" stroke="white" stroke-width="4" stroke-linecap="round"/>
</svg>
